<?xml version="1.0" standalone="no"?>
<!DOCTYPE svg PUBLIC "-//W3C//DTD SVG 20010904//EN"
 "http://www.w3.org/TR/2001/REC-SVG-20010904/DTD/svg10.dtd">
<svg version="1.0" xmlns="http://www.w3.org/2000/svg"
 width="100.000000pt" height="100.000000pt" viewBox="0 0 100.000000 100.000000"
 preserveAspectRatio="xMidYMid meet">
<metadata>
Created by potrace 1.11, written by Peter Selinger 2001-2013
</metadata>
<g transform="translate(0.000000,100.000000) scale(0.100000,-0.100000)"
fill="#000000" stroke="none">
<path d="M365 971 c-248 -71 -398 -307 -355 -559 l12 -71 24 16 c17 11 23 21
18 32 -15 38 -15 139 0 205 22 94 59 157 130 223 72 67 143 101 237 116 166
26 349 -62 434 -208 23 -39 26 -49 14 -56 -24 -17 -175 1 -276 32 -102 31
-186 37 -244 17 -92 -31 -161 -109 -175 -198 -6 -36 -16 -53 -51 -84 -24 -21
-42 -40 -40 -42 2 -2 26 6 53 17 36 16 57 34 79 68 23 35 46 54 99 81 l69 35
144 -1 c128 0 165 -5 152 -18 -3 -3 -26 -6 -52 -8 -53 -3 -58 -10 -21 -26 14
-7 57 -38 96 -69 l71 -57 39 44 c40 47 118 190 118 219 0 9 -14 39 -30 68
-106 185 -342 283 -545 224z"/>
<path d="M942 597 c-7 -18 -12 -60 -12 -93 0 -32 -4 -75 -9 -95 -8 -33 -6 -38
15 -48 21 -9 25 -8 31 17 5 15 8 73 8 129 0 111 -13 146 -33 90z"/>
<path d="M389 561 c-53 -17 -139 -80 -139 -101 0 -4 24 -5 54 -2 70 6 121 -12
219 -76 43 -28 94 -54 113 -58 52 -10 40 -22 -13 -13 -27 4 -91 27 -143 51
-91 41 -99 43 -190 43 -83 0 -102 -3 -150 -27 -30 -15 -66 -36 -80 -47 l-25
-20 25 -48 c37 -70 131 -165 198 -201 163 -87 347 -78 502 24 30 20 46 33 35
29 -50 -17 -215 -56 -262 -61 -66 -8 -174 12 -237 43 -56 28 -146 110 -177
160 -25 40 -18 53 42 84 49 25 69 24 69 -1 0 -58 72 -145 152 -186 177 -90
408 -52 558 92 33 31 60 60 60 64 0 3 -33 16 -72 27 -74 22 -165 75 -247 143
-71 58 -127 83 -201 86 -36 2 -77 0 -91 -5z"/>
</g>
</svg>
